<?xml version="1.0" encoding="UTF-8" standalone="no"?>
<svg
   xmlns:dc="http://purl.org/dc/elements/1.1/"
   xmlns:cc="http://creativecommons.org/ns#"
   xmlns:rdf="http://www.w3.org/1999/02/22-rdf-syntax-ns#"
   xmlns:svg="http://www.w3.org/2000/svg"
   xmlns="http://www.w3.org/2000/svg"
   id="svg4"
   version="1.1"
   fill="none"
   viewBox="0 0 18 18"
   height="18"
   width="18">
  <metadata
     id="metadata10">
    <rdf:RDF>
      <cc:Work
         rdf:about="">
        <dc:format>image/svg+xml</dc:format>
        <dc:type
           rdf:resource="http://purl.org/dc/dcmitype/StillImage" />
        <dc:title></dc:title>
      </cc:Work>
    </rdf:RDF>
  </metadata>
  <defs
     id="defs8" />
  <path
     style="fill:#1f567d;stroke-width:1.03746676;fill-opacity:1"
     id="path2"
     d="M 15.340544,1.7923729 H 2.8909423 c -0.2063625,0 -0.4042801,0.081981 -0.5501998,0.2279003 C 2.1948228,2.1661929 2.1128422,2.3641105 2.1128422,2.570473 v 2.0152793 c 0,0.4069463 0.1657353,0.8068898 0.4536323,1.0947868 l 4.2149683,4.2149683 v 5.9026676 c 1.556e-4,0.132588 0.034143,0.262894 0.098736,0.378675 0.064603,0.115781 0.1576846,0.213096 0.2704261,0.282813 0.1127415,0.06972 0.2414186,0.109557 0.3738512,0.115678 0.1324223,0.0061 0.2642117,-0.02168 0.3828979,-0.08072 l 3.112348,-1.5562 c 0.263828,-0.132277 0.430341,-0.4015 0.430341,-0.696452 V 9.8955074 L 15.66496,5.6805391 c 0.288001,-0.287897 0.453684,-0.6878405 0.453684,-1.0947868 V 2.570473 c 0,-0.2063625 -0.08196,-0.4042801 -0.227931,-0.5501998 C 15.744845,1.8743535 15.546896,1.7923729 15.340544,1.7923729 Z m -5.218666,7.2308843 c -0.07242,0.072135 -0.1298899,0.1578713 -0.1690029,0.2522912 -0.03911,0.09441 -0.05914,0.1956247 -0.05903,0.2978256 v 4.187735 l -1.5562001,0.7781 V 9.573374 C 8.3377883,9.4711731 8.3177237,9.3699579 8.2786008,9.2755484 8.2394675,9.1811285 8.1820541,9.0953923 8.1096597,9.0232572 L 3.6690424,4.5857523 V 3.3485731 H 14.56317 l 0.0017,1.2317325 z" />
</svg>
